<?xml version="1.0" encoding="UTF-8" standalone="no"?>
<!DOCTYPE svg PUBLIC "-//W3C//DTD SVG 1.1//EN" "http://www.w3.org/Graphics/SVG/1.1/DTD/svg11.dtd">
<svg width="100%" height="100%" viewBox="0 0 1079 1079" version="1.1" xmlns="http://www.w3.org/2000/svg" xmlns:xlink="http://www.w3.org/1999/xlink" xml:space="preserve" xmlns:serif="http://www.serif.com/" style="fill-rule:evenodd;clip-rule:evenodd;stroke-linecap:round;stroke-linejoin:round;stroke-miterlimit:1.5;">
    <g transform="matrix(1,0,0,1,-3432.13,-2.37605)">
        <g transform="matrix(1,0,0,1,2792.16,-557.019)">
            <rect id="traits" x="639.973" y="559.395" width="1078" height="1078" style="fill:none;"/>
            <g id="traits1" serif:id="traits">
                <g transform="matrix(1.08612,0,0,1.08612,-101.14,-94.3252)">
                    <g>
                        <g transform="matrix(0.880419,0.0379128,-0.0379128,0.880419,729.622,555.842)">
                            <path d="M512.47,48.463L515.353,115.415" style="fill:none;stroke:white;stroke-opacity:0.64;stroke-width:16.79px;"/>
                        </g>
                        <g transform="matrix(0.880419,0.0379128,-0.0379128,0.880419,729.622,1457.2)">
                            <path d="M512.47,48.463L515.353,115.415" style="fill:none;stroke:white;stroke-opacity:0.64;stroke-width:16.79px;"/>
                        </g>
                        <g transform="matrix(0.03795,-0.880417,0.880417,0.03795,636.691,1547.74)">
                            <path d="M512.47,48.463L515.353,115.415" style="fill:none;stroke:white;stroke-opacity:0.64;stroke-width:16.79px;"/>
                        </g>
                        <g transform="matrix(0.03795,-0.880417,0.880417,0.03795,1537.24,1547.74)">
                            <path d="M512.47,48.463L515.353,115.415" style="fill:none;stroke:white;stroke-opacity:0.64;stroke-width:16.79px;"/>
                        </g>
                    </g>
                    <g transform="matrix(0.906308,-0.422618,0.422618,0.906308,-353.67,600.99)">
                        <g transform="matrix(0.880419,0.0379128,-0.0379128,0.880419,729.622,555.842)">
                            <path d="M512.47,48.463L515.353,115.415" style="fill:none;stroke:white;stroke-opacity:0.64;stroke-width:16.79px;"/>
                        </g>
                        <g transform="matrix(0.880419,0.0379128,-0.0379128,0.880419,729.622,1457.2)">
                            <path d="M512.47,48.463L515.353,115.415" style="fill:none;stroke:white;stroke-opacity:0.64;stroke-width:16.79px;"/>
                        </g>
                        <g transform="matrix(0.03795,-0.880417,0.880417,0.03795,636.691,1547.74)">
                            <path d="M512.47,48.463L515.353,115.415" style="fill:none;stroke:white;stroke-opacity:0.64;stroke-width:16.79px;"/>
                        </g>
                        <g transform="matrix(0.03795,-0.880417,0.880417,0.03795,1537.24,1547.74)">
                            <path d="M512.47,48.463L515.353,115.415" style="fill:none;stroke:white;stroke-opacity:0.64;stroke-width:16.79px;"/>
                        </g>
                    </g>
                    <g transform="matrix(0.996195,-0.0871557,0.0871557,0.996195,-91.2248,106.901)">
                        <g transform="matrix(0.880419,0.0379128,-0.0379128,0.880419,729.622,555.842)">
                            <path d="M512.47,48.463L515.353,115.415" style="fill:none;stroke:white;stroke-opacity:0.64;stroke-width:16.79px;"/>
                        </g>
                        <g transform="matrix(0.880419,0.0379128,-0.0379128,0.880419,729.622,1457.2)">
                            <path d="M512.47,48.463L515.353,115.415" style="fill:none;stroke:white;stroke-opacity:0.64;stroke-width:16.79px;"/>
                        </g>
                        <g transform="matrix(0.03795,-0.880417,0.880417,0.03795,636.691,1547.74)">
                            <path d="M512.47,48.463L515.353,115.415" style="fill:none;stroke:white;stroke-opacity:0.64;stroke-width:16.79px;"/>
                        </g>
                        <g transform="matrix(0.03795,-0.880417,0.880417,0.03795,1537.24,1547.74)">
                            <path d="M512.47,48.463L515.353,115.415" style="fill:none;stroke:white;stroke-opacity:0.64;stroke-width:16.79px;"/>
                        </g>
                    </g>
                    <g transform="matrix(0.766044,-0.642788,0.642788,0.766044,-430.133,1014.51)">
                        <g transform="matrix(0.880419,0.0379128,-0.0379128,0.880419,729.622,555.842)">
                            <path d="M512.47,48.463L515.353,115.415" style="fill:none;stroke:white;stroke-opacity:0.64;stroke-width:16.79px;"/>
                        </g>
                        <g transform="matrix(0.880419,0.0379128,-0.0379128,0.880419,729.622,1457.2)">
                            <path d="M512.47,48.463L515.353,115.415" style="fill:none;stroke:white;stroke-opacity:0.64;stroke-width:16.79px;"/>
                        </g>
                        <g transform="matrix(0.03795,-0.880417,0.880417,0.03795,636.691,1547.74)">
                            <path d="M512.47,48.463L515.353,115.415" style="fill:none;stroke:white;stroke-opacity:0.64;stroke-width:16.79px;"/>
                        </g>
                        <g transform="matrix(0.03795,-0.880417,0.880417,0.03795,1537.24,1547.74)">
                            <path d="M512.47,48.463L515.353,115.415" style="fill:none;stroke:white;stroke-opacity:0.64;stroke-width:16.79px;"/>
                        </g>
                    </g>
                    <g transform="matrix(0.642788,-0.766044,0.766044,0.642788,-420.215,1295.14)">
                        <g transform="matrix(0.880419,0.0379128,-0.0379128,0.880419,729.622,555.842)">
                            <path d="M512.47,48.463L515.353,115.415" style="fill:none;stroke:white;stroke-opacity:0.64;stroke-width:16.79px;"/>
                        </g>
                        <g transform="matrix(0.880419,0.0379128,-0.0379128,0.880419,729.622,1457.2)">
                            <path d="M512.47,48.463L515.353,115.415" style="fill:none;stroke:white;stroke-opacity:0.64;stroke-width:16.79px;"/>
                        </g>
                        <g transform="matrix(0.03795,-0.880417,0.880417,0.03795,636.691,1547.74)">
                            <path d="M512.47,48.463L515.353,115.415" style="fill:none;stroke:white;stroke-opacity:0.64;stroke-width:16.79px;"/>
                        </g>
                        <g transform="matrix(0.03795,-0.880417,0.880417,0.03795,1537.24,1547.74)">
                            <path d="M512.47,48.463L515.353,115.415" style="fill:none;stroke:white;stroke-opacity:0.64;stroke-width:16.79px;"/>
                        </g>
                    </g>
                    <g transform="matrix(0.573576,-0.819152,0.819152,0.573576,-396.962,1433.74)">
                        <g transform="matrix(0.880419,0.0379128,-0.0379128,0.880419,729.622,555.842)">
                            <path d="M512.47,48.463L515.353,115.415" style="fill:none;stroke:white;stroke-opacity:0.64;stroke-width:16.79px;"/>
                        </g>
                        <g transform="matrix(0.880419,0.0379128,-0.0379128,0.880419,729.622,1457.2)">
                            <path d="M512.47,48.463L515.353,115.415" style="fill:none;stroke:white;stroke-opacity:0.64;stroke-width:16.79px;"/>
                        </g>
                        <g transform="matrix(0.03795,-0.880417,0.880417,0.03795,636.691,1547.74)">
                            <path d="M512.47,48.463L515.353,115.415" style="fill:none;stroke:white;stroke-opacity:0.64;stroke-width:16.79px;"/>
                        </g>
                        <g transform="matrix(0.03795,-0.880417,0.880417,0.03795,1537.24,1547.74)">
                            <path d="M512.47,48.463L515.353,115.415" style="fill:none;stroke:white;stroke-opacity:0.64;stroke-width:16.79px;"/>
                        </g>
                    </g>
                    <g transform="matrix(0.422618,-0.906308,0.906308,0.422618,-314.751,1702.23)">
                        <g transform="matrix(0.880419,0.0379128,-0.0379128,0.880419,729.622,555.842)">
                            <path d="M512.47,48.463L515.353,115.415" style="fill:none;stroke:white;stroke-opacity:0.64;stroke-width:16.79px;"/>
                        </g>
                        <g transform="matrix(0.880419,0.0379128,-0.0379128,0.880419,729.622,1457.2)">
                            <path d="M512.47,48.463L515.353,115.415" style="fill:none;stroke:white;stroke-opacity:0.64;stroke-width:16.79px;"/>
                        </g>
                        <g transform="matrix(0.03795,-0.880417,0.880417,0.03795,636.691,1547.74)">
                            <path d="M512.47,48.463L515.353,115.415" style="fill:none;stroke:white;stroke-opacity:0.64;stroke-width:16.79px;"/>
                        </g>
                        <g transform="matrix(0.03795,-0.880417,0.880417,0.03795,1537.24,1547.74)">
                            <path d="M512.47,48.463L515.353,115.415" style="fill:none;stroke:white;stroke-opacity:0.64;stroke-width:16.79px;"/>
                        </g>
                    </g>
                    <g transform="matrix(0.34202,-0.939693,0.939693,0.34202,-256.419,1830.09)">
                        <g transform="matrix(0.880419,0.0379128,-0.0379128,0.880419,729.622,555.842)">
                            <path d="M512.47,48.463L515.353,115.415" style="fill:none;stroke:white;stroke-opacity:0.64;stroke-width:16.79px;"/>
                        </g>
                        <g transform="matrix(0.880419,0.0379128,-0.0379128,0.880419,729.622,1457.2)">
                            <path d="M512.47,48.463L515.353,115.415" style="fill:none;stroke:white;stroke-opacity:0.64;stroke-width:16.79px;"/>
                        </g>
                        <g transform="matrix(0.03795,-0.880417,0.880417,0.03795,636.691,1547.74)">
                            <path d="M512.47,48.463L515.353,115.415" style="fill:none;stroke:white;stroke-opacity:0.64;stroke-width:16.79px;"/>
                        </g>
                        <g transform="matrix(0.03795,-0.880417,0.880417,0.03795,1537.24,1547.74)">
                            <path d="M512.47,48.463L515.353,115.415" style="fill:none;stroke:white;stroke-opacity:0.64;stroke-width:16.79px;"/>
                        </g>
                    </g>
                    <g transform="matrix(0.173648,-0.984808,0.984808,0.173648,-107.517,2068.16)">
                        <g transform="matrix(0.880419,0.0379128,-0.0379128,0.880419,729.622,555.842)">
                            <path d="M512.47,48.463L515.353,115.415" style="fill:none;stroke:white;stroke-opacity:0.64;stroke-width:16.79px;"/>
                        </g>
                        <g transform="matrix(0.880419,0.0379128,-0.0379128,0.880419,729.622,1457.2)">
                            <path d="M512.47,48.463L515.353,115.415" style="fill:none;stroke:white;stroke-opacity:0.64;stroke-width:16.79px;"/>
                        </g>
                        <g transform="matrix(0.03795,-0.880417,0.880417,0.03795,636.691,1547.74)">
                            <path d="M512.47,48.463L515.353,115.415" style="fill:none;stroke:white;stroke-opacity:0.64;stroke-width:16.79px;"/>
                        </g>
                        <g transform="matrix(0.03795,-0.880417,0.880417,0.03795,1537.24,1547.74)">
                            <path d="M512.47,48.463L515.353,115.415" style="fill:none;stroke:white;stroke-opacity:0.64;stroke-width:16.79px;"/>
                        </g>
                    </g>
                    <g transform="matrix(0.0871557,-0.996195,0.996195,0.0871557,-18.0804,2176.56)">
                        <g transform="matrix(0.880419,0.0379128,-0.0379128,0.880419,729.622,555.842)">
                            <path d="M512.47,48.463L515.353,115.415" style="fill:none;stroke:white;stroke-opacity:0.64;stroke-width:16.79px;"/>
                        </g>
                        <g transform="matrix(0.880419,0.0379128,-0.0379128,0.880419,729.622,1457.2)">
                            <path d="M512.47,48.463L515.353,115.415" style="fill:none;stroke:white;stroke-opacity:0.64;stroke-width:16.79px;"/>
                        </g>
                        <g transform="matrix(0.03795,-0.880417,0.880417,0.03795,636.691,1547.74)">
                            <path d="M512.47,48.463L515.353,115.415" style="fill:none;stroke:white;stroke-opacity:0.64;stroke-width:16.79px;"/>
                        </g>
                        <g transform="matrix(0.03795,-0.880417,0.880417,0.03795,1537.24,1547.74)">
                            <path d="M512.47,48.463L515.353,115.415" style="fill:none;stroke:white;stroke-opacity:0.64;stroke-width:16.79px;"/>
                        </g>
                    </g>
                    <g transform="matrix(0.939693,-0.34202,0.34202,0.939693,-304.509,469.335)">
                        <g transform="matrix(0.880419,0.0379128,-0.0379128,0.880419,729.622,555.842)">
                            <path d="M512.47,48.463L515.353,115.415" style="fill:none;stroke:white;stroke-opacity:0.64;stroke-width:16.79px;"/>
                        </g>
                        <g transform="matrix(0.880419,0.0379128,-0.0379128,0.880419,729.622,1457.2)">
                            <path d="M512.47,48.463L515.353,115.415" style="fill:none;stroke:white;stroke-opacity:0.64;stroke-width:16.79px;"/>
                        </g>
                        <g transform="matrix(0.03795,-0.880417,0.880417,0.03795,636.691,1547.74)">
                            <path d="M512.47,48.463L515.353,115.415" style="fill:none;stroke:white;stroke-opacity:0.64;stroke-width:16.79px;"/>
                        </g>
                        <g transform="matrix(0.03795,-0.880417,0.880417,0.03795,1537.24,1547.74)">
                            <path d="M512.47,48.463L515.353,115.415" style="fill:none;stroke:white;stroke-opacity:0.64;stroke-width:16.79px;"/>
                        </g>
                    </g>
                    <g transform="matrix(0.984808,-0.173648,0.173648,0.984808,-172.785,221.347)">
                        <g transform="matrix(0.880419,0.0379128,-0.0379128,0.880419,729.622,555.842)">
                            <path d="M512.47,48.463L515.353,115.415" style="fill:none;stroke:white;stroke-opacity:0.64;stroke-width:16.79px;"/>
                        </g>
                        <g transform="matrix(0.880419,0.0379128,-0.0379128,0.880419,729.622,1457.2)">
                            <path d="M512.47,48.463L515.353,115.415" style="fill:none;stroke:white;stroke-opacity:0.64;stroke-width:16.79px;"/>
                        </g>
                        <g transform="matrix(0.03795,-0.880417,0.880417,0.03795,636.691,1547.74)">
                            <path d="M512.47,48.463L515.353,115.415" style="fill:none;stroke:white;stroke-opacity:0.64;stroke-width:16.79px;"/>
                        </g>
                        <g transform="matrix(0.03795,-0.880417,0.880417,0.03795,1537.24,1547.74)">
                            <path d="M512.47,48.463L515.353,115.415" style="fill:none;stroke:white;stroke-opacity:0.64;stroke-width:16.79px;"/>
                        </g>
                    </g>
                    <g transform="matrix(0.965926,-0.258819,0.258819,0.965926,-244.061,342.465)">
                        <g transform="matrix(0.880419,0.0379128,-0.0379128,0.880419,729.622,555.842)">
                            <path d="M512.47,48.463L515.353,115.415" style="fill:none;stroke:white;stroke-opacity:0.64;stroke-width:16.79px;"/>
                        </g>
                        <g transform="matrix(0.880419,0.0379128,-0.0379128,0.880419,729.622,1457.2)">
                            <path d="M512.47,48.463L515.353,115.415" style="fill:none;stroke:white;stroke-opacity:0.64;stroke-width:16.79px;"/>
                        </g>
                        <g transform="matrix(0.03795,-0.880417,0.880417,0.03795,636.691,1547.74)">
                            <path d="M512.47,48.463L515.353,115.415" style="fill:none;stroke:white;stroke-opacity:0.64;stroke-width:16.79px;"/>
                        </g>
                        <g transform="matrix(0.03795,-0.880417,0.880417,0.03795,1537.24,1547.74)">
                            <path d="M512.47,48.463L515.353,115.415" style="fill:none;stroke:white;stroke-opacity:0.64;stroke-width:16.79px;"/>
                        </g>
                    </g>
                    <g transform="matrix(0.866025,-0.5,0.5,0.866025,-391.169,736.429)">
                        <g transform="matrix(0.880419,0.0379128,-0.0379128,0.880419,729.622,555.842)">
                            <path d="M512.47,48.463L515.353,115.415" style="fill:none;stroke:white;stroke-opacity:0.64;stroke-width:16.79px;"/>
                        </g>
                        <g transform="matrix(0.880419,0.0379128,-0.0379128,0.880419,729.622,1457.2)">
                            <path d="M512.47,48.463L515.353,115.415" style="fill:none;stroke:white;stroke-opacity:0.64;stroke-width:16.79px;"/>
                        </g>
                        <g transform="matrix(0.03795,-0.880417,0.880417,0.03795,636.691,1547.74)">
                            <path d="M512.47,48.463L515.353,115.415" style="fill:none;stroke:white;stroke-opacity:0.64;stroke-width:16.79px;"/>
                        </g>
                        <g transform="matrix(0.03795,-0.880417,0.880417,0.03795,1537.24,1547.74)">
                            <path d="M512.47,48.463L515.353,115.415" style="fill:none;stroke:white;stroke-opacity:0.64;stroke-width:16.79px;"/>
                        </g>
                    </g>
                    <g transform="matrix(0.819152,-0.573576,0.573576,0.819152,-416.722,874.62)">
                        <g transform="matrix(0.880419,0.0379128,-0.0379128,0.880419,729.622,555.842)">
                            <path d="M512.47,48.463L515.353,115.415" style="fill:none;stroke:white;stroke-opacity:0.64;stroke-width:16.79px;"/>
                        </g>
                        <g transform="matrix(0.880419,0.0379128,-0.0379128,0.880419,729.622,1457.2)">
                            <path d="M512.47,48.463L515.353,115.415" style="fill:none;stroke:white;stroke-opacity:0.64;stroke-width:16.79px;"/>
                        </g>
                        <g transform="matrix(0.03795,-0.880417,0.880417,0.03795,636.691,1547.74)">
                            <path d="M512.47,48.463L515.353,115.415" style="fill:none;stroke:white;stroke-opacity:0.64;stroke-width:16.79px;"/>
                        </g>
                        <g transform="matrix(0.03795,-0.880417,0.880417,0.03795,1537.24,1547.74)">
                            <path d="M512.47,48.463L515.353,115.415" style="fill:none;stroke:white;stroke-opacity:0.64;stroke-width:16.79px;"/>
                        </g>
                    </g>
                    <g transform="matrix(0.707107,-0.707107,0.707107,0.707107,-431.3,1155.04)">
                        <g transform="matrix(0.880419,0.0379128,-0.0379128,0.880419,729.622,555.842)">
                            <path d="M512.47,48.463L515.353,115.415" style="fill:none;stroke:white;stroke-opacity:0.64;stroke-width:16.79px;"/>
                        </g>
                        <g transform="matrix(0.880419,0.0379128,-0.0379128,0.880419,729.622,1457.2)">
                            <path d="M512.47,48.463L515.353,115.415" style="fill:none;stroke:white;stroke-opacity:0.64;stroke-width:16.79px;"/>
                        </g>
                        <g transform="matrix(0.03795,-0.880417,0.880417,0.03795,636.691,1547.74)">
                            <path d="M512.47,48.463L515.353,115.415" style="fill:none;stroke:white;stroke-opacity:0.64;stroke-width:16.79px;"/>
                        </g>
                        <g transform="matrix(0.03795,-0.880417,0.880417,0.03795,1537.24,1547.74)">
                            <path d="M512.47,48.463L515.353,115.415" style="fill:none;stroke:white;stroke-opacity:0.64;stroke-width:16.79px;"/>
                        </g>
                    </g>
                    <g transform="matrix(0.5,-0.866025,0.866025,0.5,-361.718,1569.78)">
                        <g transform="matrix(0.880419,0.0379128,-0.0379128,0.880419,729.622,555.842)">
                            <path d="M512.47,48.463L515.353,115.415" style="fill:none;stroke:white;stroke-opacity:0.64;stroke-width:16.79px;"/>
                        </g>
                        <g transform="matrix(0.880419,0.0379128,-0.0379128,0.880419,729.622,1457.2)">
                            <path d="M512.47,48.463L515.353,115.415" style="fill:none;stroke:white;stroke-opacity:0.64;stroke-width:16.79px;"/>
                        </g>
                        <g transform="matrix(0.03795,-0.880417,0.880417,0.03795,636.691,1547.74)">
                            <path d="M512.47,48.463L515.353,115.415" style="fill:none;stroke:white;stroke-opacity:0.64;stroke-width:16.79px;"/>
                        </g>
                        <g transform="matrix(0.03795,-0.880417,0.880417,0.03795,1537.24,1547.74)">
                            <path d="M512.47,48.463L515.353,115.415" style="fill:none;stroke:white;stroke-opacity:0.64;stroke-width:16.79px;"/>
                        </g>
                    </g>
                    <g transform="matrix(0.258819,-0.965926,0.965926,0.258819,-187.165,1952.38)">
                        <g transform="matrix(0.880419,0.0379128,-0.0379128,0.880419,729.622,555.842)">
                            <path d="M512.47,48.463L515.353,115.415" style="fill:none;stroke:white;stroke-opacity:0.64;stroke-width:16.79px;"/>
                        </g>
                        <g transform="matrix(0.880419,0.0379128,-0.0379128,0.880419,729.622,1457.2)">
                            <path d="M512.47,48.463L515.353,115.415" style="fill:none;stroke:white;stroke-opacity:0.64;stroke-width:16.79px;"/>
                        </g>
                        <g transform="matrix(0.03795,-0.880417,0.880417,0.03795,636.691,1547.74)">
                            <path d="M512.47,48.463L515.353,115.415" style="fill:none;stroke:white;stroke-opacity:0.64;stroke-width:16.79px;"/>
                        </g>
                        <g transform="matrix(0.03795,-0.880417,0.880417,0.03795,1537.24,1547.74)">
                            <path d="M512.47,48.463L515.353,115.415" style="fill:none;stroke:white;stroke-opacity:0.64;stroke-width:16.79px;"/>
                        </g>
                    </g>
                </g>
            </g>
        </g>
    </g>
</svg>
