<?xml version="1.0" encoding="UTF-8" standalone="no"?>
<!DOCTYPE svg PUBLIC "-//W3C//DTD SVG 1.1//EN" "http://www.w3.org/Graphics/SVG/1.1/DTD/svg11.dtd">
<svg width="100%" height="100%" viewBox="0 0 917 826" version="1.1" xmlns="http://www.w3.org/2000/svg" xmlns:xlink="http://www.w3.org/1999/xlink" xml:space="preserve" xmlns:serif="http://www.serif.com/" style="fill-rule:evenodd;clip-rule:evenodd;stroke-linecap:round;stroke-linejoin:round;stroke-miterlimit:1.5;">
    <g transform="matrix(1,0,0,1,-4770.92,-127.621)">
        <g transform="matrix(1,0,0,1,-3432.71,-2)">
            <g transform="matrix(0.871687,0.00460098,-0.00290544,1.38038,1194.46,-146.852)">
                <path d="M8735.17,750.341L9084.37,749.177" style="fill:none;stroke:white;stroke-opacity:0.64;stroke-width:3.27px;stroke-dasharray:0.33,9.81,0.33,0,0,0;"/>
            </g>
        </g>
        <g transform="matrix(1,0,0,1,-3432.71,-2)">
            <g transform="matrix(1.3517,0,0,1.3517,-3180.39,-167.752)">
                <path d="M8743.28,444.743C8698.16,444.743 8661.58,481.323 8661.58,526.448C8661.58,571.572 8698.16,608.152 8743.28,608.152" style="fill:none;stroke:white;stroke-opacity:0.64;stroke-width:2.8px;stroke-dasharray:0.28,8.39,0.28,0,0,0;"/>
            </g>
        </g>
        <g transform="matrix(1,0,0,1,-3432.71,-2)">
            <g transform="matrix(2.277,0,0,2.19417,-11270.5,-611.268)">
                <path d="M8743.28,444.743C8698.16,444.743 8661.58,481.323 8661.58,526.448C8661.58,571.572 8698.16,608.152 8743.28,608.152" style="fill:none;stroke:white;stroke-opacity:0.64;stroke-width:1.69px;stroke-dasharray:0.17,5.07,0.17,0,0,0;"/>
            </g>
        </g>
        <g transform="matrix(1,0,0,1,-3432.71,-2)">
            <g transform="matrix(3.17362,0,0,3.05818,-19109.9,-1064.36)">
                <path d="M8743.28,444.743C8698.16,444.743 8661.58,481.323 8661.58,526.448C8661.58,571.572 8698.16,608.152 8743.28,608.152" style="fill:none;stroke:white;stroke-opacity:0.64;stroke-width:1.21px;stroke-dasharray:0.12,3.64,0.12,0,0,0;"/>
            </g>
        </g>
        <g transform="matrix(1,0,0,1,-3432.71,-2)">
            <g transform="matrix(4.08538,0,0,3.93678,-27081.7,-1527.47)">
                <path d="M8743.28,444.743C8698.16,444.743 8661.58,481.323 8661.58,526.448C8661.58,571.572 8698.16,608.152 8743.28,608.152" style="fill:none;stroke:white;stroke-opacity:0.64;stroke-width:0.94px;stroke-dasharray:0.09,2.83,0.09,0,0,0;"/>
            </g>
        </g>
        <g transform="matrix(1,0,0,1,-3432.71,-2)">
            <g transform="matrix(4.92434,0,0,4.74523,-34423.9,-1955.72)">
                <path d="M8747.55,444.746L8743.28,444.743C8698.16,444.743 8661.58,481.323 8661.58,526.448C8661.58,571.572 8698.16,608.152 8743.28,608.152L8778.94,607.942" style="fill:none;stroke:rgb(252,82,0);stroke-width:10.37px;stroke-linecap:butt;"/>
            </g>
        </g>
        <g transform="matrix(1,0,0,1,-3432.71,-2)">
            <g transform="matrix(1.32643,0,0,1.38039,-2938.75,-169.296)">
                <path d="M8731.18,596.489L9084.37,596.489" style="fill:none;stroke:white;stroke-opacity:0.64;stroke-width:2.77px;stroke-dasharray:0.28,8.31,0.28,0,0,0;"/>
            </g>
        </g>
        <g transform="matrix(1,0,0,1,-3432.71,-2)">
            <g transform="matrix(1.32506,0,0,1.38039,-2926.31,-168.98)">
                <path d="M8733.38,646.354L9084.37,646.354" style="fill:none;stroke:white;stroke-opacity:0.64;stroke-width:2.77px;stroke-dasharray:0.28,8.32,0.28,0,0,0;"/>
            </g>
        </g>
        <g transform="matrix(1,0,0,1,-3432.71,-2)">
            <g transform="matrix(1.34614,5.86306e-06,5.86306e-06,1.38039,-3110.35,-169.148)">
                <path d="M8735.17,698.829L9084.37,698.769" style="fill:none;stroke:white;stroke-opacity:0.64;stroke-width:2.77px;stroke-dasharray:0.28,8.32,0.28,0,0,0;"/>
            </g>
        </g>
        <g transform="matrix(1,0,0,1,-3432.71,-2)">
            <g transform="matrix(1.34612,0.00460098,-0.00448678,1.38038,-3106.84,-209.253)">
                <path d="M8735.17,750.341L9084.37,749.177" style="fill:none;stroke:white;stroke-opacity:0.64;stroke-width:2.77px;stroke-dasharray:0.28,8.32,0.28,0,0,0;"/>
            </g>
        </g>
        <g transform="matrix(1,0,0,1,-3432.71,-2)">
            <g transform="matrix(0.951654,0,0,0.951654,3668.22,-21.9903)">
                <path d="M5219.98,260.997L5236.05,260.997" style="fill:none;stroke:white;stroke-width:52.54px;stroke-linecap:butt;"/>
            </g>
        </g>
        <g transform="matrix(1,0,0,1,-3432.71,-2)">
            <g transform="matrix(0.951654,0,0,0.951654,3668.22,50.0097)">
                <path d="M5219.98,260.997L5236.05,260.997" style="fill:none;stroke:white;stroke-width:52.54px;stroke-linecap:butt;"/>
            </g>
        </g>
        <g transform="matrix(1,0,0,1,-3432.71,-2)">
            <g transform="matrix(0.951654,0,0,0.951654,3668.22,122.044)">
                <path d="M5219.98,260.997L5236.05,260.997" style="fill:none;stroke:white;stroke-width:52.54px;stroke-linecap:butt;"/>
            </g>
        </g>
        <g transform="matrix(1,0,0,1,-3432.71,-2)">
            <g id="fifth-sport" transform="matrix(1,0,0,1,3432.71,2.09483)">
                <path d="M5218.42,438.094C5218.42,438.094 5201.79,438.373 5192.92,438.791C5169.49,439.894 5137.88,451.51 5126.93,463.517" style="fill:none;stroke:white;stroke-width:50px;stroke-linecap:butt;"/>
            </g>
        </g>
        <g transform="matrix(1,0,0,1,-3432.71,-2)">
            <g id="second-sport" transform="matrix(0.951654,0,0,0.951654,3668.22,-21.9903)">
                <path d="M5201.27,260.997C5019.11,260.997 4871.45,408.665 4871.45,590.824C4871.45,700.948 4926.41,803.807 5017.95,865.014" style="fill:none;stroke:white;stroke-width:52.54px;stroke-linecap:square;"/>
            </g>
        </g>
        <g transform="matrix(1,0,0,1,-3432.71,-2)">
            <g id="third-sport" transform="matrix(0.737329,0,0,0.737329,4784.98,105.948)">
                <path d="M5201.27,260.997C5019.11,260.997 4871.45,408.665 4871.45,590.824" style="fill:none;stroke:white;stroke-width:67.81px;stroke-linecap:square;"/>
            </g>
        </g>
        <g transform="matrix(1,0,0,1,-3432.71,-2)">
            <g id="fourth-sport" transform="matrix(0.528025,0,0,0.528025,5879.22,232.609)">
                <path d="M5201.27,260.997C5063.8,260.997 4944.56,345.301 4903.94,455.159" style="fill:none;stroke:white;stroke-width:94.69px;stroke-linecap:square;"/>
            </g>
        </g>
    </g>
</svg>
