<svg fill="" xmlns="http://www.w3.org/2000/svg" viewBox="0 0 16 16" width="100%" height="100%"><g><path d="M12.46 21.99l-2.94-2.95-2.72 2.72H2.52v-1.35h3.72l3.28-3.28 3.04 3.05 2.5-2 1.73 1.73H21v1.35h-4.77l-1.27-1.27z" fill=""></path><path d="M22.33 13.09a3.33 3.33 0 00-4.737-3.007l1.42 3.007H17.52l-2.016-4.27-4.744 7.12-1.583-.72A4.65 4.65 0 015 17.76a4.67 4.67 0 110-9.34v1.35a3.32 3.32 0 102.949 4.892L5.02 13.33v-1.784l2.134-2.492-2.08-4.784h-.97L3.43 2.92h3.363l.618 1.35h-.865l1.115 2.564 6.554-.763-1.01-2.14h4.973a1.63 1.63 0 011.448 1.644c0 .312-.085.618-.247.885a1.63 1.63 0 01-1.38.81h-.154l-.675-1.35H18a.27.27 0 00.24-.14.33.33 0 000-.33.31.31 0 00-.24-.18h-2.67l.255.541-.007.004 1.439 3.047A4.662 4.662 0 0119 8.42a4.68 4.68 0 014.68 4.67 4.78 4.78 0 01-.34 1.75A4.649 4.649 0 0119 17.76a4.67 4.67 0 01-4.387-6.27h1.478A3.32 3.32 0 0019 16.41a3.29 3.29 0 003.08-2.08l.003.001a3.17 3.17 0 00.246-1.241zM7.756 10.437L6.12 12.35l3.077 1.401zm2.884 3.248l4.192-6.288-.017-.037-6.591.768z" fill-rule="evenodd"></path></g></svg>