<?xml version="1.0" encoding="UTF-8" standalone="no"?>
<!DOCTYPE svg PUBLIC "-//W3C//DTD SVG 1.1//EN" "http://www.w3.org/Graphics/SVG/1.1/DTD/svg11.dtd">
<svg width="100%" height="100%" viewBox="0 0 851 672" version="1.1" xmlns="http://www.w3.org/2000/svg" xmlns:xlink="http://www.w3.org/1999/xlink" xml:space="preserve" xmlns:serif="http://www.serif.com/" style="fill-rule:evenodd;clip-rule:evenodd;stroke-linejoin:round;stroke-miterlimit:1.5;">
    <g transform="matrix(1,0,0,1,-19975.3,-533.522)">
        <g transform="matrix(1,0,0,1,-0.500149,262)">
            <g transform="matrix(1,0,0,1,0.500149,-262)">
                <path d="M20109,547.511L20211.7,549.312" style="fill:none;stroke:white;stroke-width:27.98px;"/>
            </g>
            <g transform="matrix(1,0,0,1,0.500149,-262)">
                <path d="M20160.3,547.511L20352.2,963.73L20175.6,887.913L20262.4,768.876" style="fill:none;stroke:white;stroke-width:27.98px;"/>
            </g>
            <g transform="matrix(1,0,0,1,0.500149,-262)">
                <path d="M20228,694.25L20525.2,671.836L20627.9,880.847L20487.4,585.349L20640.5,587.151C20640.5,587.151 20691,652.016 20622.5,655.62" style="fill:none;stroke:white;stroke-width:27.98px;"/>
            </g>
            <g transform="matrix(1,0,0,1,0.500149,-262)">
                <path d="M20539.1,700.05L20352.2,963.73" style="fill:none;stroke:white;stroke-width:27.98px;"/>
            </g>
            <g transform="matrix(1,0,0,1,0.500149,-262)">
                <path d="M20067.5,1190.76L20211.7,1187.16L20312.6,1080.85L20424.3,1187.16L20521.6,1111.48L20566.6,1169.14L20730.6,1174.54" style="fill:none;stroke:white;stroke-width:27.98px;"/>
            </g>
            <g transform="matrix(0.205561,-1.14947,1.11019,0.198536,16062.5,22095.7)">
                <path d="M18789.7,533.996C18717.1,533.996 18658.3,592.83 18658.3,665.406C18658.3,737.933 18717.2,796.815 18789.7,796.815C18862.3,796.815 18921.1,737.981 18921.1,665.406" style="fill:none;stroke:white;stroke-width:24.37px;"/>
            </g>
            <g transform="matrix(1.10721,0.370977,-0.3583,1.06937,-422.964,-7047.5)">
                <path d="M18789.7,533.996C18717.1,533.996 18658.3,592.83 18658.3,665.406C18658.3,737.933 18717.2,796.815 18789.7,796.815C18862.3,796.815 18921.1,737.981 18921.1,665.406" style="fill:none;stroke:white;stroke-width:24.37px;"/>
            </g>
        </g>
    </g>
</svg>
