<?xml version="1.0" encoding="UTF-8" standalone="no"?>
<!DOCTYPE svg PUBLIC "-//W3C//DTD SVG 1.1//EN" "http://www.w3.org/Graphics/SVG/1.1/DTD/svg11.dtd">
<svg width="100%" height="100%" viewBox="0 0 745 699" version="1.1" xmlns="http://www.w3.org/2000/svg" xmlns:xlink="http://www.w3.org/1999/xlink" xml:space="preserve" xmlns:serif="http://www.serif.com/" style="fill-rule:evenodd;clip-rule:evenodd;stroke-linejoin:round;stroke-miterlimit:1.5;">
    <g transform="matrix(1,0,0,1,-18756.6,-403.126)">
        <g transform="matrix(1,0,0,1,21.3055,261)">
            <g transform="matrix(1,0,0,1,75.4718,29.554)">
                <path d="M18697.4,342.778L18846.1,194.128L18958.2,298.183L19151.5,126.56L19385.3,346.832" style="fill:none;stroke:white;stroke-width:27.98px;"/>
            </g>
            <g transform="matrix(1,0,0,1,75.4718,29.554)">
                <path d="M18778.5,369.806L18878.5,369.806" style="fill:none;stroke:white;stroke-width:27.98px;"/>
            </g>
            <g transform="matrix(1,0,0,1,75.4718,29.554)">
                <path d="M18828.5,369.806L18977.1,698.187L19160.9,491.428L19132.6,414.401L19187.1,383.319" style="fill:none;stroke:white;stroke-width:27.98px;"/>
            </g>
            <g transform="matrix(1,0,0,1,75.4718,29.554)">
                <path d="M19160.9,491.428L19239.3,638.727" style="fill:none;stroke:white;stroke-width:27.98px;"/>
            </g>
            <g transform="matrix(1,0,0,1,75.4718,29.554)">
                <path d="M19144.7,449.978L18900.1,514.401" style="fill:none;stroke:white;stroke-width:27.98px;"/>
            </g>
            <g transform="matrix(1,0,0,1,75.4718,29.554)">
                <path d="M18968,496.532L18992,551.951L18828.5,638.727L18975.8,698.187" style="fill:none;stroke:white;stroke-width:27.98px;"/>
            </g>
            <g transform="matrix(0.989998,0.141081,-0.141081,0.989998,372.848,-2614.65)">
                <path d="M18789.7,533.996C18717.1,533.996 18658.3,592.83 18658.3,665.406C18658.3,737.933 18717.2,796.815 18789.7,796.815C18862.3,796.815 18921.1,737.981 18921.1,665.406" style="fill:none;stroke:white;stroke-width:27.98px;"/>
            </g>
            <g transform="matrix(0.176038,-0.984383,0.984383,0.176038,15372.1,19072)">
                <path d="M18789.7,533.996C18717.1,533.996 18658.3,592.83 18658.3,665.406C18658.3,737.933 18717.2,796.815 18789.7,796.815C18862.3,796.815 18921.1,737.981 18921.1,665.406" style="fill:none;stroke:white;stroke-width:27.98px;"/>
            </g>
        </g>
    </g>
</svg>
