<svg fill="" xmlns="http://www.w3.org/2000/svg" viewBox="0 0 16 16" width="100%" height="100%"><g><path d="M1.02 7.96v1.885L6.01 4.95l3.48 3.48 6.01-5.51 7.5 7.233V8.278L15.52 1.07 9.54 6.56 6.02 3.05z" fill=""></path><path clip-rule="evenodd" d="M5.07 10.17h-.96l-.675-1.35h3.5l.675 1.35H6.54l1.432 3.342 6.196-1.966-.588-1.266 3.43-.933v1.393l-1.543.414 1.55 3.098a4.68 4.68 0 016.663 4.228 4.78 4.78 0 01-.34 1.75A4.65 4.65 0 0119 23.15a4.67 4.67 0 01-4.432-6.14h1.46a3.32 3.32 0 106.052 2.72 3.17 3.17 0 00.25-1.25A3.33 3.33 0 0019 15.16a3.32 3.32 0 00-1.377.301l1.51 3.019h-1.509l-2.17-4.334-5.184 6.604-1.024-.28A4.65 4.65 0 015 23.15a4.67 4.67 0 010-9.34v1.35a3.32 3.32 0 102.917 4.949l-2.897-.79V17.48h-.003l2.624-1.314-2.57-5.996zm5.554 3.917l4.143-1.314.021.041-4.605 5.858-.799-1.864L11.4 15.8zM6.4 18.3l1.775-.887.663 1.547zm3.23-3.13l-.304-.671-.82.26.344.802.78-.39z" fill-rule="evenodd" ></path></g></svg>