<?xml version="1.0" encoding="UTF-8" standalone="no"?>
<!DOCTYPE svg PUBLIC "-//W3C//DTD SVG 1.1//EN" "http://www.w3.org/Graphics/SVG/1.1/DTD/svg11.dtd">
<svg width="100%" height="100%" viewBox="0 0 613 678" version="1.1" xmlns="http://www.w3.org/2000/svg" xmlns:xlink="http://www.w3.org/1999/xlink" xml:space="preserve" xmlns:serif="http://www.serif.com/" style="fill-rule:evenodd;clip-rule:evenodd;stroke-linejoin:round;stroke-miterlimit:1.5;">
    <g transform="matrix(1,0,0,1,-21477,-488.445)">
        <g transform="matrix(1,0,0,1,-0.662594,0)">
            <g transform="matrix(1,0,0,1,0.662594,0)">
                <path d="M21491,1030.58L21575.2,930.257L21768.9,1151.66L21848.5,1083.63L21896.9,1132.06L22075.7,1133.21" style="fill:none;stroke:white;stroke-width:27.98px;"/>
            </g>
        </g>
        <g transform="matrix(1,0,0,1,-0.662594,0)">
            <g transform="matrix(1,0,0,1,0.662594,0)">
                <path d="M21739,944.095L21800.1,1007.52L22075.7,1007.52L22075.7,930.257L21954.6,848.383L21862.3,644.273L21785.6,700.778L21752.8,668.489L21751.6,547.511L21719.4,502.434L21551,676.561L21546.4,728.454L21584.4,760.742" style="fill:none;stroke:white;stroke-width:27.98px;"/>
            </g>
        </g>
        <g transform="matrix(1,0,0,1,-0.662594,0)">
            <g transform="matrix(1,0,0,1,0.662594,0)">
                <path d="M21614.4,801.103L21643.2,832.648" style="fill:none;stroke:white;stroke-width:27.98px;"/>
            </g>
        </g>
        <g transform="matrix(1,0,0,1,-0.662594,0)">
            <g transform="matrix(0.984563,0.175033,-0.175033,0.984563,489.492,-3782.26)">
                <path d="M21670.9,869.135L21702.1,891.05" style="fill:none;stroke:white;stroke-width:27.98px;"/>
            </g>
        </g>
        <g transform="matrix(1,0,0,1,-0.662594,0)">
            <g transform="matrix(1,0,0,1,0.662594,0)">
                <path d="M21584.4,641.966L21785.6,869.135" style="fill:none;stroke:white;stroke-width:27.98px;"/>
            </g>
        </g>
        <g transform="matrix(1,0,0,1,-0.662594,0)">
            <g transform="matrix(1,0,0,1,0.662594,0)">
                <path d="M21891.2,711.156L21834.7,775.733" style="fill:none;stroke:white;stroke-width:27.98px;"/>
            </g>
        </g>
        <g transform="matrix(1,0,0,1,-0.662594,0)">
            <g transform="matrix(1,0,0,1,0.662594,0)">
                <path d="M21923.5,775.733L21862.9,842.617" style="fill:none;stroke:white;stroke-width:27.98px;"/>
            </g>
        </g>
    </g>
</svg>
